Patient4_TMGait_0pt3_02_right_11_GRF.mot
version=1
nRows=39
nColumns=19
inDegrees=no
endheader
time	F1x	F1y	F1z	M1x	M1y	M1z	F2x	F2y	F2z	M2x	M2y	M2z	EC1x	EC1y	EC1z	EC2x	EC2y	EC2z
20.43	-7.4619	787.7937	44.1682	-299.4017	-47.448	779.7476	-4.9311	16.9361	-5.5921	7.0449	6.5674	15.2688	-0.0592	0.0182	-0.0073	-0.0462	0.0165	0.9585
20.4499	-8.0565	811.6833	46.3235	-308.277	-49.4753	799.5054	-4.0237	14.1833	-4.1126	5.7336	4.9386	12.8925	-0.0592	0.0182	-0.0073	-0.0462	0.0165	0.9585
20.4699	-8.3705	835.9337	48.4932	-317.3023	-51.3468	819.1411	-2.9926	11.1482	-2.7197	4.3798	3.3519	10.2925	-0.0592	0.0182	-0.0073	-0.0462	0.0165	0.9585
20.4898	-8.3303	857.6572	50.4497	-325.3771	-52.8115	836.0157	-1.9475	8.2809	-1.5451	3.1565	1.9639	7.8404	-0.0592	0.0182	-0.0073	-0.0462	0.0165	0.9585
20.5097	-7.8674	874.3351	52.0101	-331.5482	-53.6704	847.819	-1.0359	5.9132	-0.65559	2.1768	0.88253	5.811	-0.0592	0.0182	-0.0073	-0.0462	0.0165	0.9585
20.5296	-6.8881	884.2179	53.054	-335.1591	-53.7779	852.9386	-0.3278	4.153	-0.046048	1.4669	0.12424	4.2971	-0.0592	0.0182	-0.0073	-0.0462	0.0165	0.9585
20.5496	-5.3237	886.3989	53.5509	-335.8688	-53.0831	850.5507	0.16638	2.9547	0.32766	0.9966	-0.35047	3.2602	-0.0592	0.0182	-0.0073	-0.0462	0.0165	0.9585
20.5695	-3.1617	880.7909	53.5528	-333.6386	-51.637	840.6112	0.47233	2.1861	0.52418	0.70545	-0.605	2.582	-0.0592	0.0182	-0.0073	-0.0462	0.0165	0.9585
20.5894	-0.42717	868.0833	53.1731	-328.7186	-49.5637	823.8206	0.63151	1.6731	0.60485	0.51965	-0.71347	2.1011	-0.0592	0.0182	-0.0073	-0.0462	0.0165	0.9585
20.6094	2.8211	849.594	52.574	-321.5935	-47.0433	801.4857	0.68777	1.2307	0.62469	0.36406	-0.74322	1.6476	-0.0592	0.0182	-0.0073	-0.0462	0.0165	0.9585
20.6293	6.5006	827.0943	51.9337	-312.921	-44.2804	775.3398	0.68091	0.68258	0.626	0.16882	-0.74906	1.0569	-0.0592	0.0182	-0.0073	-0.0462	0.0165	0.9585
20.6492	10.5163	802.6182	51.4104	-303.4628	-41.465	747.3579	0.64523	-0.12206	0.63864	-0.12538	-0.77097	0.18539	-0.0592	0.0182	-0.0073	-0.0462	0.0165	0.9585
20.6691	14.7462	778.2609	51.1164	-294.0116	-38.7552	719.556	0.60786	-1.2905	0.68059	-0.56032	-0.83076	-1.0635	-0.0592	0.0182	-0.0073	-0.0462	0.0165	0.9585
20.6891	19.0475	756.0066	51.1034	-285.3275	-36.2603	693.8153	0.59223	-2.8557	0.75752	-1.1485	-0.93346	-2.7184	-0.0592	0.0182	-0.0073	-0.0462	0.0165	0.9585
20.709	23.288	737.5798	51.3656	-278.0818	-34.0356	671.732	0.61539	-4.7268	0.85957	-1.8551	-1.0688	-4.686	-0.0592	0.0182	-0.0073	-0.0462	0.0165	0.9585
20.7289	27.3688	724.2729	51.8609	-272.7871	-32.0921	654.472	0.68613	-6.6299	0.95854	-2.5766	-1.2092	-6.6853	-0.0592	0.0182	-0.0073	-0.0462	0.0165	0.9585
20.7489	31.2425	716.7296	52.5237	-269.7086	-30.4017	642.5893	0.80838	-8.043	1.0051	-3.1154	-1.3053	-8.1808	-0.0592	0.0182	-0.0073	-0.0462	0.0165	0.9585
20.7688	34.8906	714.7167	53.278	-268.77	-28.9169	635.8522	0.98246	-8.1301	0.92787	-3.1557	-1.2818	-8.2979	-0.0592	0.0182	-0.0073	-0.0462	0.0165	0.9585
20.7887	38.2806	716.9815	54.0579	-269.4918	-27.605	633.1495	1.1987	-5.693	0.63463	-2.2453	-1.0353	-5.7762	-0.0592	0.0182	-0.0073	-0.0462	0.0165	0.9585
20.8086	41.3417	721.2911	54.8147	-271.0057	-26.467	632.5463	1.4304	0.82516	0.017168	0.20431	-0.43614	1.016	-0.0592	0.0182	-0.0073	-0.0462	0.0165	0.9585
20.8286	43.9367	724.6606	55.4965	-272.1482	-25.5302	631.5027	1.6261	13.2402	-1.0378	4.8811	0.66025	13.9813	-0.0592	0.0182	-0.0073	-0.0462	0.0165	0.9585
20.8485	45.8451	723.6931	56.0112	-271.5968	-24.8251	627.1774	1.7067	33.3761	-2.6253	12.4765	2.3896	35.0381	-0.0592	0.0182	-0.0073	-0.0462	0.0165	0.9585
20.8684	46.8218	715.1171	56.2114	-268.0909	-24.3488	616.8646	1.5285	62.6127	-4.7828	23.516	4.8481	65.6401	-0.0592	0.0182	-0.0073	-0.0462	0.0165	0.9585
20.8884	46.6693	696.4491	55.9005	-260.6982	-24.035	598.5276	0.67834	101.3152	-7.4418	38.1432	8.1147	106.1667	-0.0592	0.0182	-0.0073	-0.0462	0.0165	0.9585
20.9083	45.3159	666.5427	54.8606	-249.0273	-23.7399	571.2365	-1.6446	148.2638	-10.4394	55.9033	12.3011	155.3348	-0.0592	0.0182	-0.0073	-0.0462	0.0165	0.9585
20.9282	42.9055	625.9062	52.9343	-233.3308	-23.2738	535.3929	-5.76	200.7937	-13.6945	75.7718	17.4235	210.3239	-0.0592	0.0182	-0.0073	-0.0462	0.0165	0.9585
20.9481	39.7719	576.5703	50.1207	-214.4346	-22.4864	492.6141	-11.1841	255.8745	-17.3663	96.5537	23.4493	267.8601	-0.0592	0.0182	-0.0073	-0.0462	0.0165	0.9585
20.9681	36.3035	521.4432	46.5729	-193.476	-21.3164	445.2369	-17.1547	311.6991	-21.3721	117.5272	29.9968	325.9387	-0.0592	0.0182	-0.0073	-0.0462	0.0165	0.9585
20.988	32.7979	463.4157	42.5106	-171.5652	-19.7838	395.6093	-22.9548	367.2651	-25.4446	138.303	36.5191	383.4303	-0.0592	0.0182	-0.0073	-0.0462	0.0165	0.9585
21.0079	29.4044	404.8373	38.1277	-149.5872	-17.9503	345.657	-28.0011	421.4113	-29.2716	158.4504	42.478	439.0636	-0.0592	0.0182	-0.0073	-0.0462	0.0165	0.9585
21.0279	26.1665	347.4838	33.5901	-128.1905	-15.9038	296.8451	-31.8978	472.7217	-32.6332	177.4502	47.5083	491.3404	-0.0592	0.0182	-0.0073	-0.0462	0.0165	0.9585
21.0478	23.0641	292.7298	29.041	-107.8595	-13.7509	250.31	-34.4761	519.7267	-35.4397	194.7718	51.4647	538.7554	-0.0592	0.0182	-0.0073	-0.0462	0.0165	0.9585
21.0677	20.0574	241.7569	24.595	-89.0007	-11.5939	207.0348	-35.7782	561.2535	-37.6594	210.0139	54.3362	580.1399	-0.0592	0.0182	-0.0073	-0.0462	0.0165	0.9585
21.0876	17.1437	195.6869	20.3615	-71.998	-9.524	167.9523	-35.9754	596.7353	-39.2193	223.0254	56.1199	614.9589	-0.0592	0.0182	-0.0073	-0.0462	0.0165	0.9585
21.1076	14.384	155.5369	16.4665	-57.1995	-7.6246	133.8998	-35.2841	626.2288	-39.9597	233.9027	56.7494	643.3223	-0.0592	0.0182	-0.0073	-0.0462	0.0165	0.9585
21.1275	11.8799	122.0264	13.0448	-44.8507	-5.9672	105.459	-33.9391	650.1881	-39.7333	242.8785	56.1771	665.7668	-0.0592	0.0182	-0.0073	-0.0462	0.0165	0.9585
21.1474	9.7278	95.3096	10.2048	-34.9966	-4.6065	82.7311	-32.1726	669.174	-38.5403	250.1795	54.4908	682.9484	-0.0592	0.0182	-0.0073	-0.0462	0.0165	0.9585
21.1674	7.9573	74.7743	7.9847	-27.4106	-3.5675	65.1794	-30.1679	683.6778	-36.5984	255.943	51.9633	695.4482	-0.0592	0.0182	-0.0073	-0.0462	0.0165	0.9585
21.1873	6.5034	59.1658	6.3304	-21.6386	-2.835	51.7428	-28.0486	694.1678	-34.3033	260.2421	49.0138	703.8156	-0.0592	0.0182	-0.0073	-0.0462	0.0165	0.9585
